<svg xmlns="http://www.w3.org/2000/svg" viewBox="0 0 64 64">
  <defs>
    <radialGradient id="sea" cx="38%" cy="34%" r="75%">
      <stop offset="0" stop-color="#7fb4e6"/>
      <stop offset="1" stop-color="#2f6fae"/>
    </radialGradient>
    <clipPath id="globe">
      <circle cx="29" cy="35" r="25"/>
    </clipPath>
  </defs>
  <circle cx="29" cy="35" r="25" fill="url(#sea)"/>
  <g clip-path="url(#globe)" fill="#8fc97a">
    <path d="M9 22c5-5 12-7 17-5 3 1 2 5-1 6-4 2-3 6 1 8 3 2 1 7-3 7-5 0-7 5-11 4-5-1-7-8-6-12 1-3 1-6 3-8z"/>
    <path d="M33 27c4-2 9-1 12 2 3 3 7 3 8 7 1 5-4 7-7 10-3 3-2 8-6 9-4 1-6-4-5-8 1-3-2-5-4-7-2-3-1-11 2-13z"/>
  </g>
  <g clip-path="url(#globe)" fill="none" stroke="#fff" stroke-opacity=".35" stroke-width="1.4">
    <ellipse cx="29" cy="35" rx="11" ry="25"/>
    <path d="M4 35h50M7 23h44M7 47h44"/>
  </g>
  <circle cx="29" cy="35" r="25" fill="none" stroke="#1b1a17" stroke-opacity=".25" stroke-width="1.5"/>
  <path d="M48 4c-6.6 0-12 5.1-12 11.5C36 24 48 34 48 34s12-10 12-18.5C60 9.1 54.6 4 48 4z" fill="#b7502f" stroke="#fff" stroke-width="2.2" stroke-linejoin="round"/>
  <circle cx="48" cy="15.5" r="4.3" fill="#fff"/>
</svg>
